<?xml version="1.0" encoding="UTF-8"?>
<svg width="24px" height="24px" viewBox="0 0 24 24" version="1.1" xmlns="http://www.w3.org/2000/svg">
    <title>Info Icon</title>
    <g stroke="none" stroke-width="1" fill="none" fill-rule="evenodd">
        <circle fill="#2196F3" cx="12" cy="12" r="10"></circle>
        <path d="M12,7 C12.5522847,7 13,7.44771525 13,8 C13,8.55228475 12.5522847,9 12,9 C11.4477153,9 11,8.55228475 11,8 C11,7.44771525 11.4477153,7 12,7 Z M12,10 C12.5522847,10 13,10.4477153 13,11 L13,16 C13,16.5522847 12.5522847,17 12,17 C11.4477153,17 11,16.5522847 11,16 L11,11 C11,10.4477153 11.4477153,10 12,10 Z" fill="#FFFFFF" fill-rule="nonzero"></path>
    </g>
</svg>
